<?xml version="1.0" encoding="UTF-8"?>
<svg version="1.1" xmlns="http://www.w3.org/2000/svg" width="1024" height="1024">
<path d="M0 0 C1.55322988 0.47316711 3.10662907 0.94577866 4.66015625 1.41796875 C30.32103142 9.40042739 56.71871984 21.072797 77 39 C78.25970629 39.95239891 79.53015222 40.89081253 80.8125 41.8125 C90.7006444 49.18366219 99.69690217 57.50621529 108.4375 66.1875 C109.18241699 66.92323242 109.92733398 67.65896484 110.69482422 68.41699219 C115.56971314 73.31922512 119.85825237 78.47040013 124 84 C125.15628906 85.47339844 125.15628906 85.47339844 126.3359375 86.9765625 C132.22792258 94.62937071 137.28715172 102.59112285 142 111 C142.45777832 111.81307617 142.91555664 112.62615234 143.38720703 113.46386719 C155.43939528 135.10219915 164.64415143 158.05727779 171 182 C171.18925049 182.70777588 171.37850098 183.41555176 171.57348633 184.14477539 C172.50778963 187.74228361 173.25649813 191.23292412 173.5625 194.9375 C173.6163251 197.76447742 173.6163251 197.76447742 175 200 C175.32595547 203.62172742 175.51380536 207.2445521 175.71875 210.875 C175.65135448 213.8649801 175.65135448 213.8649801 177 215 C179.92516429 268.12275625 168.45872935 316.02144342 146.33056641 364.10839844 C145.06426246 366.86034411 143.81864693 369.62092564 142.57421875 372.3828125 C136.29236449 386.1284727 128.79901136 399.06740541 121 412 C120.48195801 412.86383301 119.96391602 413.72766602 119.43017578 414.61767578 C113.85230551 423.90924781 108.08459257 433.02993054 102 442 C100.66612086 444.02047311 99.33279423 446.04131108 98 448.0625 C94.86798283 452.76052575 91.61007263 457.34111457 88.26171875 461.88671875 C86.53027465 464.27007099 84.82844631 466.6653991 83.14453125 469.08203125 C77.97089462 476.50392341 72.74963099 483.74007909 66.93359375 490.67578125 C65.28168167 492.66141295 63.71734537 494.67029716 62.1875 496.75 C57.32881141 503.32272595 52.13169274 509.64007734 47 516 C46.22269531 516.96421875 45.44539063 517.9284375 44.64453125 518.921875 C38.56987947 526.4017741 32.30104887 533.71091684 26 541 C25.3503125 541.7528125 24.700625 542.505625 24.03125 543.28125 C19.89849929 548.03781213 15.65234819 552.68838933 11.40625 557.34375 C9.41351047 559.54352741 7.4466186 561.75955218 5.5 564 C1.86995983 568.17797076 -1.86501838 572.25749381 -5.59765625 576.34375 C-7.58015362 578.53577962 -9.5177615 580.75339955 -11.4375 583 C-14.87716659 586.97582565 -18.5954236 590.65212201 -22.35717773 594.3203125 C-25.01995753 596.89904631 -25.01995753 596.89904631 -27 600 C-27.66 600 -28.32 600 -29 600 C-29.226875 600.55171875 -29.45375 601.1034375 -29.6875 601.671875 C-31.38725926 604.68692417 -33.54804816 606.81230369 -36 609.25 C-36.886875 610.14203125 -37.77375 611.0340625 -38.6875 611.953125 C-41 614 -41 614 -43 614 C-43 614.66 -43 615.32 -43 616 C-44.328125 617.33984375 -44.328125 617.33984375 -46.25 618.9375 C-48.87363861 621.15177655 -51.4402634 623.39430725 -53.921875 625.765625 C-66.73188485 637.97967756 -66.73188485 637.97967756 -75.5625 638.5 C-83.64814961 638.04466478 -88.62372781 632.76892089 -94.27734375 627.51171875 C-96.3793081 625.57260386 -98.50521868 623.69731299 -100.671875 621.83300781 C-104.94067044 618.10266598 -108.97114499 614.17357122 -112.97265625 610.16015625 C-114.0627726 609.07147499 -114.0627726 609.07147499 -115.1749115 607.96080017 C-116.69962296 606.43676444 -118.2230915 604.91148431 -119.74536133 603.38500977 C-122.05633891 601.06867537 -124.37260771 598.75772922 -126.68945312 596.44726562 C-128.1800082 594.95604966 -129.670253 593.46452347 -131.16015625 591.97265625 C-131.84263931 591.29219742 -132.52512238 590.61173859 -133.22828674 589.91065979 C-137.11152008 586.00872014 -140.82165751 582.00781712 -144.40943909 577.83210754 C-147.14397897 574.68229347 -150.01577313 571.66124765 -152.875 568.625 C-160.77023556 560.19422883 -168.48007905 551.70724139 -175.74609375 542.72265625 C-177.95146704 540.05862647 -180.2317631 537.49211558 -182.5625 534.9375 C-186.1698999 530.97496746 -189.53859789 526.8857343 -192.8515625 522.67578125 C-194.81076617 520.23568213 -196.8252638 517.85365699 -198.8671875 515.48266602 C-204.51233412 508.91958507 -209.75171163 502.11968759 -214.90234375 495.1640625 C-217.49949522 491.65778439 -220.14563616 488.19233081 -222.80981445 484.73681641 C-233.75662751 470.53403661 -244.21410374 456.02730972 -254 441 C-254.3810791 440.41798828 -254.7621582 439.83597656 -255.15478516 439.23632812 C-260.64845695 430.83782178 -265.88233254 422.3016329 -271.00390625 413.671875 C-272.38385778 411.35572106 -273.78754042 409.05410015 -275.1875 406.75 C-293.65802436 375.880941 -308.39709218 342.66309606 -318 308 C-318.19190918 307.31325195 -318.38381836 306.62650391 -318.58154297 305.91894531 C-323.76265755 286.96685016 -326.63891872 266.63535115 -327 247 C-327.02046387 246.02240723 -327.04092773 245.04481445 -327.06201172 244.03759766 C-327.76761093 204.63483862 -321.76717558 164.13767722 -303 129 C-302.37162855 127.720365 -301.74944097 126.43767863 -301.1328125 125.15234375 C-293.23900626 108.73563098 -283.36916363 94.20613522 -272 80 C-271.54012695 79.4215332 -271.08025391 78.84306641 -270.60644531 78.24707031 C-259.37065421 64.21274265 -246.69833404 51.38976295 -232 41 C-231.4028418 40.56913086 -230.80568359 40.13826172 -230.19042969 39.69433594 C-219.56060805 32.03712107 -208.47601496 25.30944281 -197 19 C-196.34628418 18.6380957 -195.69256836 18.27619141 -195.01904297 17.90332031 C-137.00617246 -13.81179854 -62.81434214 -20.37789695 0 0 Z M-16 229 C-15.67 230.32 -15.34 231.64 -15 233 C-15 231.68 -15 230.36 -15 229 C-15.33 229 -15.66 229 -16 229 Z M-135 242 C-135 246.95 -135 251.9 -135 257 C-134.67 257 -134.34 257 -134 257 C-134 252.05 -134 247.1 -134 242 C-134.33 242 -134.66 242 -135 242 Z M-171 275 C-170 279 -170 279 -170 279 Z " fill="#DF228D" transform="translate(590,187)"/>
<path d="M0 0 C0.81227051 0.1453418 1.62454102 0.29068359 2.46142578 0.44042969 C34.65489792 6.41521374 63.40022631 21.39564735 87 44 C87.74378906 44.69222656 88.48757813 45.38445312 89.25390625 46.09765625 C113.34514901 69.18335149 130.52936211 104.81627137 132.16113281 138.30712891 C132.2074638 142.07987193 132.24668403 145.85198565 132.25 149.625 C132.25067474 150.31396362 132.25134949 151.00292725 132.25204468 151.71276855 C132.23349814 163.67753836 131.4434245 175.26627153 129 187 C128.83371094 187.8029248 128.66742187 188.60584961 128.49609375 189.43310547 C125.84977411 201.66743322 121.50955721 212.78752001 116 224 C115.44441406 225.15113281 114.88882812 226.30226563 114.31640625 227.48828125 C108.25173126 239.39947746 100.14290112 250.07215047 91.02734375 259.8125 C89.19132708 261.79355845 87.50955566 263.83839874 85.8125 265.9375 C77.13695566 275.85240782 65.24758042 283.32136245 54 290 C53.41669922 290.34659668 52.83339844 290.69319336 52.23242188 291.05029297 C18.86757746 310.54363922 -24.87943058 316.95053641 -62.43115234 307.68896484 C-76.02760763 304.04239605 -88.65804563 298.72042424 -101 292 C-102.04414063 291.44699219 -103.08828125 290.89398437 -104.1640625 290.32421875 C-120.21331682 281.45266524 -135.54525632 268.2990367 -147 254 C-147.76699219 253.07058594 -148.53398437 252.14117188 -149.32421875 251.18359375 C-155.94172686 243.00691303 -161.16109734 234.32421183 -166 225 C-166.54398437 223.96617187 -167.08796875 222.93234375 -167.6484375 221.8671875 C-184.86647921 186.97560033 -188.12174874 142.4109554 -175.62182617 105.47753906 C-168.72809353 86.38126258 -158.86777579 69.08711569 -145.48046875 53.83984375 C-143.90941249 52.04116989 -142.37621574 50.20809545 -140.8984375 48.33203125 C-137.9842338 44.75223782 -134.52594113 41.96012288 -131 39 C-130.195625 38.30777344 -129.39125 37.61554688 -128.5625 36.90234375 C-107.20507172 18.88201364 -83.16030444 7.25724177 -56 1 C-55.29649414 0.83338867 -54.59298828 0.66677734 -53.86816406 0.49511719 C-36.33275746 -3.54379621 -17.65258583 -3.23878538 0 0 Z M34 142 C34.33 143.32 34.66 144.64 35 146 C35 144.68 35 143.36 35 142 C34.67 142 34.34 142 34 142 Z M-85 155 C-85 159.95 -85 164.9 -85 170 C-84.67 170 -84.34 170 -84 170 C-84 165.05 -84 160.1 -84 155 C-84.33 155 -84.66 155 -85 155 Z M-121 188 C-120 192 -120 192 -120 192 Z " fill="#210D32" transform="translate(540,274)"/>
<path d="M0 0 C1.63457279 0.68582082 3.26992299 1.3697914 4.90600586 2.05200195 C9.08115483 3.79883621 13.24530332 5.57037367 17.40686035 7.3493042 C21.12736355 8.93562013 24.85687365 10.50034942 28.5859375 12.06640625 C34.69817403 14.63766109 40.79944433 17.23367675 46.89456177 19.8452301 C50.90333988 21.56199382 54.91691099 23.26683441 58.93519592 24.96122742 C61.54819832 26.06353439 64.15935729 27.17016347 66.77023315 28.27749634 C68.57396497 29.04090015 70.37984931 29.79921185 72.18579102 30.55737305 C73.26530029 31.01668213 74.34480957 31.47599121 75.45703125 31.94921875 C76.39909424 32.34713623 77.34115723 32.74505371 78.31176758 33.1550293 C80.76828497 34.3534299 82.76404461 35.56712415 84.8125 37.375 C85.375 39.8125 85.375 39.8125 84.8125 42.375 C80.52518811 46.59981942 75.26424483 48.5542856 69.80078125 50.83203125 C68.31711815 51.46221664 68.31711815 51.46221664 66.80348206 52.10513306 C63.5802133 53.47286609 60.35260854 54.83004417 57.125 56.1875 C52.66385794 58.07718533 48.20502405 59.97229029 43.74609375 61.8671875 C42.63816467 62.33714645 41.5302356 62.80710541 40.38873291 63.29130554 C29.45185084 67.93661591 18.58293692 72.72925477 7.7355957 77.5793457 C4.10442797 79.20072078 0.45909072 80.78859923 -3.1875 82.375 C-3.81958374 82.65966125 -4.45166748 82.94432251 -5.10290527 83.23760986 C-14.37095275 87.40014104 -22.30165956 90.53802615 -32.43310547 87.35546875 C-36.05165413 85.97425778 -39.58984258 84.45311428 -43.125 82.875 C-44.40582015 82.32070889 -45.6875718 81.76856559 -46.97021484 81.21850586 C-49.52314693 80.12260569 -52.07242925 79.01881935 -54.61962891 77.90966797 C-59.47920475 75.81939195 -64.38795718 73.86840268 -69.3125 71.9375 C-75.04062192 69.67162359 -80.66690335 67.28684064 -86.24609375 64.671875 C-93.11506505 61.64332457 -100.17564926 59.0516911 -107.1875 56.375 C-107.13569601 60.79262977 -107.04063121 65.20829382 -106.9375 69.625 C-106.92332031 70.87925781 -106.90914063 72.13351562 -106.89453125 73.42578125 C-106.86230469 74.63105469 -106.83007812 75.83632813 -106.796875 77.078125 C-106.77592773 78.18833008 -106.75498047 79.29853516 -106.73339844 80.44238281 C-106.07456198 83.98171355 -104.83808139 85.04300906 -102.1875 87.375 C-101.76171875 89.6640625 -101.76171875 89.6640625 -101.875 92 C-101.89949219 92.77601563 -101.92398437 93.55203125 -101.94921875 94.3515625 C-102.1875 96.375 -102.1875 96.375 -103.1875 98.375 C-103.44503306 103.61150547 -103.08517046 108.33680323 -102.1875 113.5 C-99.3114791 131.36491815 -99.3114791 131.36491815 -102.23828125 137.62109375 C-103.95610346 139.73416709 -105.75400039 141.1582502 -108.1875 142.375 C-115.27708838 142.9561138 -115.27708838 142.9561138 -119.125 140.5 C-122.96525858 136.54336995 -122.37899392 132.68001291 -122.375 127.4375 C-122.37564453 126.57664795 -122.37628906 125.7157959 -122.37695312 124.82885742 C-122.33100581 119.28019676 -121.82157715 114.10425488 -120.640625 108.671875 C-119.60287321 103.41154698 -119.71130249 99.17263268 -122.1875 94.375 C-122.5625 90.875 -122.5625 90.875 -122.1875 87.375 C-121.1979834 86.50536621 -121.1979834 86.50536621 -120.18847656 85.61816406 C-117.3418891 82.42704088 -117.72988454 80.20477373 -117.796875 75.984375 C-117.80253479 75.27976135 -117.80819458 74.57514771 -117.81402588 73.84918213 C-117.83634922 71.60708572 -117.88653246 69.36661012 -117.9375 67.125 C-117.95757048 65.60158565 -117.9758203 64.07814614 -117.9921875 62.5546875 C-118.03619882 58.8276017 -118.10519628 55.10145913 -118.1875 51.375 C-118.94675781 51.04886719 -119.70601563 50.72273438 -120.48828125 50.38671875 C-121.48214844 49.94972656 -122.47601563 49.51273437 -123.5 49.0625 C-124.48613281 48.63324219 -125.47226562 48.20398438 -126.48828125 47.76171875 C-130.8869336 45.50191906 -130.8869336 45.50191906 -132.1875 43.375 C-132.24072266 39.90185547 -132.24072266 39.90185547 -131.1875 36.375 C-128.70849609 34.44580078 -128.70849609 34.44580078 -125.3359375 32.9453125 C-124.71713715 32.66261505 -124.09833679 32.3799176 -123.46078491 32.08865356 C-121.38226009 31.15209124 -119.28793564 30.26124438 -117.1875 29.375 C-115.6943329 28.73015025 -114.20116892 28.08529331 -112.70800781 27.44042969 C-107.76311571 25.32709508 -102.78928137 23.28681938 -97.8125 21.25 C-96.00326547 20.50517175 -94.19418552 19.75996791 -92.38525391 19.0144043 C-86.98940478 16.79292805 -81.58917026 14.58227826 -76.1875 12.375 C-75.38320557 12.04618835 -74.57891113 11.71737671 -73.75024414 11.37860107 C-55.18088379 3.78912754 -55.18088379 3.78912754 -47.71777344 0.81494141 C-45.24739394 -0.19268641 -42.8163189 -1.22852847 -40.38378906 -2.31884766 C-24.91324603 -9.14068321 -14.90083191 -6.41887036 0 0 Z M-120.1875 131.375 C-119.1875 135.375 -119.1875 135.375 -119.1875 135.375 Z " fill="#FCF2EF" transform="translate(539.1875,330.625)"/>
<path d="M0 0 C7.14228292 2.23520149 13.8672658 5.05557471 20.6875 8.125 C25.12229927 10.08946306 29.56066788 12.04580351 34 14 C35.04236816 14.45906738 36.08473633 14.91813477 37.15869141 15.39111328 C40.09822905 16.67513045 43.04698988 17.93483122 46 19.1875 C46.87615967 19.57373535 47.75231934 19.9599707 48.6550293 20.35791016 C57.07650961 23.88302994 62.76991887 24.05183829 71.34375 20.76171875 C73.73626924 19.75367332 76.12142358 18.7280182 78.5 17.6875 C79.77067624 17.14548578 81.04192577 16.60481376 82.3137207 16.06542969 C86.22000072 14.40153964 90.11183882 12.70573979 94 11 C94.93703766 10.58902069 94.93703766 10.58902069 95.89300537 10.16973877 C101.07093896 7.89632166 106.2481423 5.62156359 111.40625 3.3034668 C112.37949219 2.8681665 113.35273437 2.43286621 114.35546875 1.984375 C115.63393677 1.40768066 115.63393677 1.40768066 116.93823242 0.81933594 C119 0 119 0 121 0 C122.67479658 8.50503719 123.36496305 16.71310916 123.375 25.375 C123.39949219 26.51066406 123.42398438 27.64632813 123.44921875 28.81640625 C123.47817666 37.05010471 122.30884284 40.30188153 116.875 46.375 C115 48 115 48 113 48 C113.05800781 48.6084375 113.11601563 49.216875 113.17578125 49.84375 C113.86114831 63.15945297 108.94508473 75.47534231 101 86 C100.46632813 86.72703125 99.93265625 87.4540625 99.3828125 88.203125 C91.68958909 97.84726153 81.00909365 102.93708821 69 105 C59.80557085 105.89701748 50.56213199 105.77485887 42 102 C41.13375 101.63261719 40.2675 101.26523437 39.375 100.88671875 C26.93046775 94.89425223 16.76366307 83.81061506 11.828125 70.9453125 C9.96039003 65.30150466 8.80533154 59.9028766 8.125 54 C7.46472644 48.78551446 7.46472644 48.78551446 4.0625 45.0625 C3.051875 44.381875 2.04125 43.70125 1 43 C-2.83681778 37.47785105 -2.42033629 31.89569545 -2.3125 25.4375 C-2.30412109 24.37080078 -2.29574219 23.30410156 -2.28710938 22.20507812 C-2.17217688 14.65171453 -1.61792948 7.39624906 0 0 Z M119 8 C119.33 9.32 119.66 10.64 120 12 C120 10.68 120 9.36 120 8 C119.67 8 119.34 8 119 8 Z M0 21 C0 25.95 0 30.9 0 36 C0.33 36 0.66 36 1 36 C1 31.05 1 26.1 1 21 C0.67 21 0.34 21 0 21 Z " fill="#FDF3EE" transform="translate(455,408)"/>
<path d="M0 0 C1.67479658 8.50503719 2.36496305 16.71310916 2.375 25.375 C2.39949219 26.51066406 2.42398438 27.64632813 2.44921875 28.81640625 C2.47817666 37.05010471 1.30884284 40.30188153 -4.125 46.375 C-6 48 -6 48 -8 48 C-8 50.97 -8 53.94 -8 57 C-8.66 55.68 -9.32 54.36 -10 53 C-10.66 53.66 -11.32 54.32 -12 55 C-11.91256669 53.08249714 -11.8043811 51.16593335 -11.6875 49.25 C-11.62949219 48.18265625 -11.57148437 47.1153125 -11.51171875 46.015625 C-10.96909846 42.8178932 -10.14928855 41.37401309 -8 39 C-8.66 38.34 -9.32 37.68 -10 37 C-9.34 37 -8.68 37 -8 37 C-7.67 35.68 -7.34 34.36 -7 33 C-8.485 33.495 -8.485 33.495 -10 34 C-12.30026035 32.53619796 -14.07182111 30.92817889 -16 29 C-15.9765625 26.6171875 -15.9765625 26.6171875 -15.625 23.875 C-15.51414062 22.96492188 -15.40328125 22.05484375 -15.2890625 21.1171875 C-15.19367187 20.41851562 -15.09828125 19.71984375 -15 19 C-21.94485303 18.51547537 -28.2990368 20.30712509 -35 22 C-34.67 20.68 -34.34 19.36 -34 18 C-34.99 17.67 -35.98 17.34 -37 17 C-34.28438152 13.65842988 -30.63212282 12.29709459 -26.77734375 10.64453125 C-25.72541588 10.18478157 -25.72541588 10.18478157 -24.65223694 9.71574402 C-23.17351085 9.07120804 -21.69328203 8.43011018 -20.21166992 7.79223633 C-17.93886977 6.81309011 -15.67132612 5.82250204 -13.40429688 4.83007812 C-11.96644089 4.20504997 -10.52829937 3.58067816 -9.08984375 2.95703125 C-8.40961655 2.6602095 -7.72938934 2.36338776 -7.02854919 2.05757141 C-2.23201603 0 -2.23201603 0 0 0 Z M-2 8 C-1.67 9.32 -1.34 10.64 -1 12 C-1 10.68 -1 9.36 -1 8 C-1.33 8 -1.66 8 -2 8 Z " fill="#FBFAFA" transform="translate(576,408)"/>
<path d="M0 0 C0.33 0 0.66 0 1 0 C1 2.97 1 5.94 1 9 C1.66 9 2.32 9 3 9 C7.34260909 31.99256421 7.34260909 31.99256421 3.94921875 39.24609375 C2.23139654 41.35916709 0.43349961 42.7832502 -2 44 C-9.08958838 44.5811138 -9.08958838 44.5811138 -12.9375 42.125 C-16.77777446 38.16835358 -16.19149704 34.30511518 -16.1875 29.0625 C-16.18814453 28.20744873 -16.18878906 27.35239746 -16.18945312 26.47143555 C-16.13682828 20.1498756 -15.54742576 14.14825415 -14 8 C-13.01 7.67 -12.02 7.34 -11 7 C-10.67 8.98 -10.34 10.96 -10 13 C-9.01 13.33 -8.02 13.66 -7 14 C-8.375 16 -8.375 16 -10 18 C-10.66 18 -11.32 18 -12 18 C-11.88623383 20.12563103 -11.75864369 22.2505261 -11.625 24.375 C-11.55539062 25.55835938 -11.48578125 26.74171875 -11.4140625 27.9609375 C-11.29782654 31.10562319 -11.29782654 31.10562319 -9 33 C-9 33.99 -9 34.98 -9 36 C-8.34 35.34 -7.68 34.68 -7 34 C-7.495 33.21625 -7.99 32.4325 -8.5 31.625 C-10 29 -10 29 -10 27 C-8.34151823 25.98648336 -6.67334039 24.98879205 -5 24 C-2.58140803 22.24934167 -2.58140803 22.24934167 -1 20 C-1.32852082 17.44063441 -1.32852082 17.44063441 -2 15 C-1.34 14.01 -0.68 13.02 0 12 C-0.350625 11.484375 -0.70125 10.96875 -1.0625 10.4375 C-2.37103523 7.03530841 -1.729475 4.51474316 -1 1 C-0.67 0.67 -0.34 0.34 0 0 Z M-14 33 C-13 37 -13 37 -13 37 Z " fill="#F6F4F5" transform="translate(433,429)"/>
<path d="M0 0 C5.01508715 1.54058233 9.6147081 3.02931839 14 6 C11.36749612 7.31625194 10.19820944 6.74813658 7.375 6.0625 C6.55773437 5.86785156 5.74046875 5.67320312 4.8984375 5.47265625 C3.95871094 5.23869141 3.95871094 5.23869141 3 5 C3.34786708 6.97536745 3.34786708 6.97536745 4 9 C4.66 9.33 5.32 9.66 6 10 C5.34 10.66 4.68 11.32 4 12 C3.15688424 13.87183587 3.15688424 13.87183587 3 16 C3.47373047 16.82564453 3.47373047 16.82564453 3.95703125 17.66796875 C5.8711765 21.94791151 5.41613352 26.743434 5.55859375 31.37109375 C6.01500615 35.12336917 6.95344165 36.9030916 9 40 C9.1875 43.3125 9.1875 43.3125 9 46 C6.75 46.3125 6.75 46.3125 4 46 C-0.21261603 41.66702351 -2.25055852 37.83923232 -2.265625 31.81640625 C-2.26949219 30.81158203 -2.27335937 29.80675781 -2.27734375 28.77148438 C-2.26832031 27.71251953 -2.25929688 26.65355469 -2.25 25.5625 C-2.24613281 24.48677734 -2.24226563 23.41105469 -2.23828125 22.30273438 C-2.15570904 14.70150344 -1.62833292 7.44380763 0 0 Z M0 21 C0 25.95 0 30.9 0 36 C0.33 36 0.66 36 1 36 C1 31.05 1 26.1 1 21 C0.67 21 0.34 21 0 21 Z " fill="#F7F6F7" transform="translate(455,408)"/>
<path d="M0 0 C2.83620917 2.83620917 3.60342392 6.26430994 4.8125 10 C5.07313232 10.79656006 5.33376465 11.59312012 5.60229492 12.41381836 C7.43958154 18.10087043 9.17621085 23.81446303 10.8125 29.5625 C11.01915283 30.27470703 11.22580566 30.98691406 11.4387207 31.72070312 C12.68514854 36.21811236 13.37792697 40.57769903 13.76049805 45.23022461 C13.82113799 47.02310191 13.82113799 47.02310191 15 48 C15.32595547 51.62172742 15.51380536 55.2445521 15.71875 58.875 C15.65135448 61.8649801 15.65135448 61.8649801 17 63 C18.77681175 95.26797828 15.89325267 126.9338285 7 158 C6.67 158 6.34 158 6 158 C6.33 153.38 6.66 148.76 7 144 C7.66 144 8.32 144 9 144 C9.1340625 142.69546875 9.268125 141.3909375 9.40625 140.046875 C10.00144627 134.68591707 10.92067046 129.40476483 11.89453125 124.1015625 C14.05614388 111.7432519 14.24025888 99.26107054 14.25 86.75 C14.25067474 85.9634201 14.25134949 85.17684021 14.25204468 84.36642456 C14.21696112 58.43508136 10.191694 33.95348416 2.015625 9.34765625 C1.0690142 6.22748142 0.45294954 3.2248038 0 0 Z " fill="#1F011D" transform="translate(750,339)"/>
<path d="M0 0 C7.29938971 1.33671951 13.54055401 3.73906924 20.25 6.875 C21.81077271 7.59985596 21.81077271 7.59985596 23.40307617 8.33935547 C38.35008106 15.3995218 52.57576769 23.01786608 65 34 C66.25970629 34.95239891 67.53015222 35.89081253 68.8125 36.8125 C78.8148007 44.26876052 87.87199855 52.69335835 96.6875 61.5 C97.46593262 62.27762695 98.24436523 63.05525391 99.04638672 63.85644531 C102.27028522 67.11231989 105.31498968 70.27711698 108 74 C107.67 74.66 107.34 75.32 107 76 C106.61255615 75.58226318 106.2251123 75.16452637 105.82592773 74.73413086 C104.03116619 72.80063347 102.2343442 70.869062 100.4375 68.9375 C99.82841797 68.28072266 99.21933594 67.62394531 98.59179688 66.94726562 C92.0444776 59.91495974 85.35489228 53.18942474 78 47 C77.44666992 46.53287598 76.89333984 46.06575195 76.32324219 45.58447266 C54.51034052 27.25454349 30.28054021 12.54236943 3.34375 3.0078125 C1 2 1 2 0 0 Z " fill="#2B0324" transform="translate(602,192)"/>
<path d="M0 0 C1.21220147 3.81462002 0.44101227 6.35841059 -0.51953125 10.20703125 C-1.4728401 15.74862334 -1.14347875 21.39635781 -1 27 C-1.66 27.33 -2.32 27.66 -3 28 C-5.36604665 35.78179142 -5.2589922 43.36175701 -5.1953125 51.44140625 C-5.19157457 52.81859632 -5.18873129 54.19578909 -5.18673706 55.57298279 C-5.17916194 59.16834065 -5.15956741 62.76353261 -5.1373291 66.35882568 C-5.11673747 70.03932451 -5.10770709 73.71985059 -5.09765625 77.40039062 C-5.07631461 84.60033541 -5.0422543 91.80014431 -5 99 C-5.33 99 -5.66 99 -6 99 C-9.36176009 66.50447598 -10.49224771 31.47674312 0 0 Z M0 18 C0.33 18 0.66 18 1 18 C1 20.31 1 22.62 1 25 C0.01 25.495 0.01 25.495 -1 26 C-0.67 23.36 -0.34 20.72 0 18 Z " fill="#420831" transform="translate(271,359)"/>
<path d="M0 0 C3.8704687 2.70932809 5.63448584 4.93679432 7.19921875 9.48828125 C9.27867928 15.18182602 12.56383761 20.09986339 15.8125 25.1875 C16.47612549 26.23687744 17.13975098 27.28625488 17.82348633 28.36743164 C28.97367451 45.92088142 40.4009331 63.44002244 53 80 C52.67 80.66 52.34 81.32 52 82 C0 20.88821752 0 20.88821752 0 0 Z " fill="#300329" transform="translate(309,581)"/>
<path d="M0 0 C0 3.93670609 -1.29975098 5.07956815 -3.6875 8.1875 C-4.08324219 8.7043335 -4.47898437 9.22116699 -4.88671875 9.75366211 C-9.95903621 16.32699119 -15.22961363 22.74530043 -20.49560547 29.16357422 C-21.80545586 30.7625185 -23.1084141 32.36710394 -24.41015625 33.97265625 C-30.46669001 41.43615248 -36.71475542 48.72919931 -43 56 C-43.6496875 56.7528125 -44.299375 57.505625 -44.96875 58.28125 C-49.88464786 63.93917018 -54.94481498 69.46675926 -60 75 C-60 70.87063314 -57.7846979 69.30460731 -55.0625 66.5 C-50.53545469 61.71034813 -46.30524535 56.774117 -42.171875 51.63671875 C-40.06243651 49.07579972 -37.87112352 46.62876545 -35.625 44.1875 C-31.64913335 39.81954962 -27.99519334 35.26749223 -24.37646484 30.60546875 C-20.7316713 25.91262323 -17.00826364 21.2898743 -13.25 16.6875 C-8.75777728 11.1820088 -4.31387363 5.64725275 0 0 Z " fill="#290322" transform="translate(659,672)"/>
<path d="M0 0 C0.99 0.495 0.99 0.495 2 1 C1.49251221 1.34144043 0.98502441 1.68288086 0.4621582 2.03466797 C-14.9593102 12.43409939 -29.56253182 23.10273155 -43 36 C-43.83660156 36.79535156 -44.67320312 37.59070313 -45.53515625 38.41015625 C-50.85385717 43.58288939 -55.44782592 49.15144591 -60 55 C-61.65016491 57.01464308 -63.32251532 59.00798694 -65 61 C-65 57.58730421 -64.60404931 57.13049825 -62.53515625 54.5859375 C-61.99109131 53.91570557 -61.44702637 53.24547363 -60.88647461 52.55493164 C-60.28456299 51.8355542 -59.68265137 51.11617676 -59.0625 50.375 C-58.12772827 49.25242798 -58.12772827 49.25242798 -57.17407227 48.10717773 C-46.38957943 35.36670655 -34.70155368 23.58223296 -21 14 C-20.32984863 13.52804199 -19.65969727 13.05608398 -18.96923828 12.56982422 C-4.09827517 2.13080611 -4.09827517 2.13080611 0 0 Z " fill="#2E0329" transform="translate(379,214)"/>
<path d="M0 0 C1.98362069 2.91708924 1.9876191 4.12380904 1.625 7.75 C1.41875 8.8225 1.2125 9.895 1 11 C3.64738916 12.4606285 4.89448334 13 8 13 C8.66 13.33 9.32 13.66 10 14 C9.505 14.8971875 9.505 14.8971875 9 15.8125 C7.79212012 18.05386471 7.79212012 18.05386471 8 21 C7.34 21.99 6.68 22.98 6 24 C5.33841957 26.04584079 5.33841957 26.04584079 4.875 28.1875 C4.441875 30.0746875 4.441875 30.0746875 4 32 C3.85691406 31.40703125 3.71382812 30.8140625 3.56640625 30.203125 C2.85052606 27.4185979 1.9274067 24.72039298 1 22 C1.99 21.34 2.98 20.68 4 20 C2.68 20 1.36 20 0 20 C-0.66666667 18.66666667 -1.33333333 17.33333333 -2 16 C-2.391875 15.34 -2.78375 14.68 -3.1875 14 C-4.20076932 11.5057986 -3.86254033 10.50920825 -3 8 C-2.855625 7.34 -2.71125 6.68 -2.5625 6 C-1.95231644 3.83045845 -1.06216572 1.98270935 0 0 Z " fill="#FFFEE6" transform="translate(560,427)"/>
<path d="M0 0 C0.33 0 0.66 0 1 0 C1.43886236 29.08419659 -0.40652894 54.7814678 -8 83 C-8.33 83 -8.66 83 -9 83 C-8.67 78.38 -8.34 73.76 -8 69 C-7.34 69 -6.68 69 -6 69 C-5.8659375 67.69546875 -5.731875 66.3909375 -5.59375 65.046875 C-4.99855373 59.68591707 -4.07932954 54.40476483 -3.10546875 49.1015625 C-1.05958687 37.40490447 -0.80295602 25.53186965 -0.4375 13.6875 C-0.39414291 12.34960084 -0.35052433 11.01171012 -0.30664062 9.67382812 C-0.2018723 6.44929176 -0.09969983 3.22469637 0 0 Z " fill="#440634" transform="translate(765,414)"/>
<path d="M0 0 C1.75 0.125 1.75 0.125 4 1 C7.77147525 5.91434654 11 10.72446989 11 17 C11.66 17 12.32 17 13 17 C13.625 19.375 13.625 19.375 14 22 C13.34 22.66 12.68 23.32 12 24 C6.44391276 18.17933718 0.31165556 10.44655196 -0.1640625 2.1328125 C-0.10992187 1.42898438 -0.05578125 0.72515625 0 0 Z " fill="#F8F7F8" transform="translate(466,472)"/>
<path d="M0 0 C-11.45984639 7.63989759 -31.44693968 6.3733067 -44.9375 6.375 C-46.19288574 6.3764502 -47.44827148 6.37790039 -48.74169922 6.37939453 C-57.5941174 6.2705884 -57.5941174 6.2705884 -61 4 C-59.89487061 3.97494385 -58.78974121 3.9498877 -57.65112305 3.92407227 C-53.55285956 3.82993491 -49.45476306 3.72972959 -45.35668945 3.62768555 C-43.58264063 3.58436066 -41.80855077 3.54268381 -40.03442383 3.50268555 C-37.48506295 3.4449238 -34.9359082 3.38124638 -32.38671875 3.31640625 C-31.59287277 3.29969376 -30.79902679 3.28298126 -29.98112488 3.26576233 C-26.75316923 3.17882282 -24.08248901 3.02749634 -21 2 C-17.940377 1.6940377 -14.88004822 1.49176802 -11.8125 1.28125 C-7.68439502 0.8684395 -4.23706692 -0.09415704 0 0 Z " fill="#3E0435" transform="translate(555,579)"/>
<path d="M0 0 C3.88930956 2.8920507 6.86186533 5.9503273 9.875 9.75 C16.41156802 17.95164903 23.75531876 25.42716712 31 33 C30.67 33.66 30.34 34.32 30 35 C23.31202513 28.5157198 16.97532296 21.99713373 11.1796875 14.68359375 C8.16417103 10.97094176 4.91986384 7.48703402 1.65234375 3.99609375 C0 2 0 2 0 0 Z " fill="#2B0324" transform="translate(409,722)"/>
<path d="M0 0 C2 2 2 2 2.5 4.0625 C2.665 4.701875 2.83 5.34125 3 6 C3.66 6.33 4.32 6.66 5 7 C6.4209991 10.46368532 7.17341973 13.89525432 7.8125 17.5625 C8.83687529 23.08740936 10.89078244 28.05455343 13.07421875 33.21484375 C14 36 14 36 13 39 C9.34928508 30.9965096 6.4803321 22.77135068 3.6875 14.4375 C3.32591797 13.36628906 2.96433594 12.29507812 2.59179688 11.19140625 C2.25599609 10.17820312 1.92019531 9.165 1.57421875 8.12109375 C1.11921997 6.75102173 1.11921997 6.75102173 0.6550293 5.35327148 C0 3 0 3 0 0 Z " fill="#621046" transform="translate(274,499)"/>
<path d="M0 0 C3.94734988 2.76314491 5.66200374 5.04404069 7.296875 9.66796875 C9.27499956 15.11279398 12.46581021 19.65815207 15.6796875 24.43945312 C16.12054688 25.11556641 16.56140625 25.79167969 17.015625 26.48828125 C17.42071289 27.09196533 17.82580078 27.69564941 18.24316406 28.31762695 C19 30 19 30 18 33 C17.41992188 32.03320312 16.83984375 31.06640625 16.2421875 30.0703125 C15.86658691 29.44439209 15.49098633 28.81847168 15.10400391 28.17358398 C14.28047483 26.80087194 13.45723552 25.42798602 12.63427734 24.05493164 C10.82000835 21.02865687 9.00276022 18.00454728 7.171875 14.98828125 C0 3.16193182 0 3.16193182 0 0 Z " fill="#320427" transform="translate(309,581)"/>
<path d="M0 0 C0.33 0.66 0.66 1.32 1 2 C-0.3649453 4.44268953 -1.77020178 6.73629683 -3.3125 9.0625 C-3.93801758 10.03799805 -3.93801758 10.03799805 -4.57617188 11.03320312 C-7.72800434 15.86400217 -7.72800434 15.86400217 -10 17 C-8.33333333 12 -6.66666667 7 -5 2 C-4.01 2.33 -3.02 2.66 -2 3 C-1.34 2.01 -0.68 1.02 0 0 Z " fill="#691047" transform="translate(704,607)"/>
<path d="M0 0 C1.21220147 3.81462002 0.44101227 6.35841059 -0.51953125 10.20703125 C-1.4728401 15.74862334 -1.14347875 21.39635781 -1 27 C-1.99 27 -2.98 27 -4 27 C-3.6277754 17.60453769 -2.68359037 9.06344673 0 0 Z M0 18 C0.33 18 0.66 18 1 18 C1 20.31 1 22.62 1 25 C0.01 25.495 0.01 25.495 -1 26 C-0.67 23.36 -0.34 20.72 0 18 Z " fill="#851A5D" transform="translate(271,359)"/>
<path d="M0 0 C0.33 0.66 0.66 1.32 1 2 C-4.56331247 8.429126 -10.26582134 14.72355495 -16 21 C-16 16.78199568 -13.58827438 15.06304548 -10.8125 12.1875 C-9.83847312 11.16145566 -8.86581165 10.13411336 -7.89453125 9.10546875 C-7.41580566 8.59935059 -6.93708008 8.09323242 -6.44384766 7.57177734 C-4.19739841 5.12628525 -2.10169269 2.57044317 0 0 Z " fill="#37052B" transform="translate(615,726)"/>
<path d="M0 0 C-3.65742422 2.43828281 -7.12866055 2.92205867 -11.375 3.625 C-12.50808594 3.82609375 -12.50808594 3.82609375 -13.6640625 4.03125 C-17.48477419 4.68584746 -21.10771193 5.17057836 -25 5 C-24 3 -24 3 -21 2 C-17.940377 1.6940377 -14.88004822 1.49176802 -11.8125 1.28125 C-7.68439502 0.8684395 -4.23706692 -0.09415704 0 0 Z " fill="#320732" transform="translate(555,579)"/>
<path d="M0 0 C0 3.27025989 -0.35054161 3.86899 -2.15234375 6.43359375 C-2.59900391 7.08263672 -3.04566406 7.73167969 -3.50585938 8.40039062 C-3.97830078 9.07263672 -4.45074219 9.74488281 -4.9375 10.4375 C-5.86868865 11.76575671 -6.79466805 13.097684 -7.71484375 14.43359375 C-8.33540649 15.31615845 -8.33540649 15.31615845 -8.96850586 16.21655273 C-10.07494997 18.12958805 -10.56631676 19.84225545 -11 22 C-11.99 22 -12.98 22 -14 22 C-10.98828804 13.79568122 -5.79036522 6.49222767 0 0 Z " fill="#3D0732" transform="translate(312,275)"/>
<path d="M0 0 C0.99 0.66 1.98 1.32 3 2 C1.7934375 3.36125 1.7934375 3.36125 0.5625 4.75 C-1.41142671 7.10309908 -2.63877467 8.86938046 -3 12 C-3.99 12 -4.98 12 -6 12 C-6 12.99 -6 13.98 -6 15 C-6.66 15 -7.32 15 -8 15 C-6.62712658 11.30123909 -4.93644547 8.0485524 -2.875 4.6875 C-2.33617187 3.80449219 -1.79734375 2.92148437 -1.2421875 2.01171875 C-0.83226562 1.34785156 -0.42234375 0.68398438 0 0 Z " fill="#360934" transform="translate(383,342)"/>
<path d="M0 0 C4.875 1.875 4.875 1.875 6 3 C6.04063832 4.66617115 6.042721 6.33388095 6 8 C4.68 8.33 3.36 8.66 2 9 C1.22678118 6.01758453 0.58803797 3.02419525 0 0 Z " fill="#F4E9EB" transform="translate(618,365)"/>
<path d="M0 0 C0.66 0.33 1.32 0.66 2 1 C2.49230769 7.4 2.49230769 7.4 0 10.4375 C-0.99 11.2109375 -0.99 11.2109375 -2 12 C-1.67 10.02 -1.34 8.04 -1 6 C-1.66 6 -2.32 6 -3 6 C-1.125 1.125 -1.125 1.125 0 0 Z " fill="#A51C6C" transform="translate(692,618)"/>
<path d="M0 0 C0.66 0 1.32 0 2 0 C2.0270043 1.45823212 2.04639787 2.91660675 2.0625 4.375 C2.07410156 5.18710937 2.08570313 5.99921875 2.09765625 6.8359375 C2 9 2 9 1 11 C0.77532169 12.53668865 0.59203195 14.07968054 0.4375 15.625 C0.35371094 16.44226563 0.26992188 17.25953125 0.18359375 18.1015625 C0.12300781 18.72804688 0.06242187 19.35453125 0 20 C-0.33 20 -0.66 20 -1 20 C-1.19627391 18.41773035 -1.38165538 16.83410729 -1.5625 15.25 C-1.66691406 14.36828125 -1.77132813 13.4865625 -1.87890625 12.578125 C-1.99456676 10.11567549 -1.73638695 8.33461936 -1 6 C-0.34 6 0.32 6 1 6 C0.67 4.02 0.34 2.04 0 0 Z " fill="#E3DDE2" transform="translate(435,418)"/>
<path d="M0 0 C0.33 0.66 0.66 1.32 1 2 C-0.24493748 4.28974316 -1.52641528 6.44190034 -2.9375 8.625 C-3.32357422 9.23601563 -3.70964844 9.84703125 -4.10742188 10.4765625 C-5.06446326 11.9889242 -6.03132811 13.49506117 -7 15 C-8.47952282 12.04095436 -7.56133165 9.93946644 -6.73828125 6.83203125 C-6 5 -6 5 -4 3.6875 C-3.34 3.460625 -2.68 3.23375 -2 3 C-1.34 2.01 -0.68 1.02 0 0 Z " fill="#661047" transform="translate(713,592)"/>
<path d="M0 0 C0.33 0 0.66 0 1 0 C3.01670288 7.43659188 3.2137731 14.31604457 3 22 C2.67 22 2.34 22 2 22 C0.57374434 14.58856436 -0.30071865 7.55137932 0 0 Z " fill="#390534" transform="translate(358,436)"/>
<path d="M0 0 C2.2477975 2.05233685 3.0022242 3.00667261 4 6 C3.00390625 8.69921875 3.00390625 8.69921875 1.5625 11.6875 C1.08941406 12.68136719 0.61632812 13.67523437 0.12890625 14.69921875 C-0.42990234 15.83810547 -0.42990234 15.83810547 -1 17 C-2 14 -2 14 -1.125 12.1875 C-0.75375 11.465625 -0.3825 10.74375 0 10 C0.38290462 8.00889599 0.72604615 6.00899487 1 4 C0.34 4 -0.32 4 -1 4 C-0.67 2.68 -0.34 1.36 0 0 Z " fill="#781351" transform="translate(740,528)"/>
<path d="M0 0 C0.33 0 0.66 0 1 0 C1.33 4.29 1.66 8.58 2 13 C0.68 12.01 -0.64 11.02 -2 10 C-2.20703125 7.7734375 -2.20703125 7.7734375 -1.8125 5.375 C-1.69519531 4.57835937 -1.57789063 3.78171875 -1.45703125 2.9609375 C-1 1 -1 1 0 0 Z " fill="#FFFAFE" transform="translate(433,429)"/>
<path d="M0 0 C2.96052484 3.36423277 3.92289822 6.69159287 5 11 C3.68 10.34 2.36 9.68 1 9 C1 8.34 1 7.68 1 7 C0.34 7 -0.32 7 -1 7 C-0.67 4.69 -0.34 2.38 0 0 Z " fill="#350A37" transform="translate(657,361)"/>
<path d="M0 0 C1.9315196 5.7945588 -1.87682788 12.49905406 -4 18 C-4.33 18 -4.66 18 -5 18 C-4.42934122 11.58008874 -2.32655091 5.98410537 0 0 Z " fill="#450733" transform="translate(277,340)"/>
<path d="M0 0 C-0.66 0 -1.32 0 -2 0 C-2 0.66 -2 1.32 -2 2 C-5.90028225 4.60018816 -9.47434569 4.15085514 -14 4 C-11.97803833 1.97803833 -10.74135514 1.32448642 -8.125 0.3125 C-7.44695312 0.04050781 -6.76890625 -0.23148437 -6.0703125 -0.51171875 C-3.68892218 -1.07336741 -2.29569809 -0.76694846 0 0 Z " fill="#390A35" transform="translate(469,281)"/>
<path d="M0 0 C0 0.66 0 1.32 0 2 C-1.98 2.66 -3.96 3.32 -6 4 C-6 4.66 -6 5.32 -6 6 C-7.65 6 -9.3 6 -11 6 C-11 5.34 -11 4.68 -11 4 C-9.5437455 3.32880451 -8.08492133 2.66318193 -6.625 2 C-5.81289063 1.62875 -5.00078125 1.2575 -4.1640625 0.875 C-2 0 -2 0 0 0 Z " fill="#ECE7EA" transform="translate(429,358)"/>
<path d="M0 0 C1.10844919 3.32534757 0.84454356 5.62182575 0 9 C-1.32 8.67 -2.64 8.34 -4 8 C-4 6.35 -4 4.7 -4 3 C-3.01 3 -2.02 3 -1 3 C-0.67 2.01 -0.34 1.02 0 0 Z " fill="#D7298D" transform="translate(756,488)"/>
<path d="M0 0 C0 3.99904969 -1.72586967 5.80200422 -4 9 C-5.32 8.67 -6.64 8.34 -8 8 C-5.36 5.36 -2.72 2.72 0 0 Z " fill="#CE2989" transform="translate(634,530)"/>
<path d="M0 0 C2.1385485 2.1385485 2.42655063 3.13275314 3 6 C-0.75 7.125 -0.75 7.125 -3 6 C-2.67 5.01 -2.34 4.02 -2 3 C-1.34 3 -0.68 3 0 3 C0 2.01 0 1.02 0 0 Z " fill="#FEF7EC" transform="translate(572,445)"/>
<path d="M0 0 C0.33 0 0.66 0 1 0 C1 1.65 1 3.3 1 5 C1.66 5 2.32 5 3 5 C1.74821404 7.50357192 0.00018842 9.06433379 -2 11 C-1.85892253 9.54119891 -1.71197585 8.08296449 -1.5625 6.625 C-1.48128906 5.81289063 -1.40007812 5.00078125 -1.31640625 4.1640625 C-1 2 -1 2 0 0 Z " fill="#971D67" transform="translate(279,334)"/>
<path d="M0 0 C2.69725519 1.88807863 4.13216429 3.19824644 6 6 C6 6.99 6 7.98 6 9 C3 8 3 8 1.3125 5.0625 C0 2 0 2 0 0 Z " fill="#721250" transform="translate(309,581)"/>
<path d="M0 0 C0.99 0.33 1.98 0.66 3 1 C3 2.98 3 4.96 3 7 C2.01 7 1.02 7 0 7 C-0.38133299 5.0085944 -0.71325582 3.00720923 -1 1 C-0.67 0.67 -0.34 0.34 0 0 Z " fill="#FEFAFC" transform="translate(421,427)"/>
<path d="M0 0 C0.33 1.32 0.66 2.64 1 4 C1.66 4 2.32 4 3 4 C2.67 4.99 2.34 5.98 2 7 C0.35 7 -1.3 7 -3 7 C-2.01 4.69 -1.02 2.38 0 0 Z " fill="#D02789" transform="translate(298,297)"/>
<path d="M0 0 C0.66 0.33 1.32 0.66 2 1 C1.67 1.66 1.34 2.32 1 3 C2.32 3.33 3.64 3.66 5 4 C2.69 4.66 0.38 5.32 -2 6 C-1.34 4.02 -0.68 2.04 0 0 Z " fill="#C82585" transform="translate(470,274)"/>
<path d="M0 0 C0 3 0 3 -1.3125 4.38671875 C-2.875 5.59114583 -4.4375 6.79557292 -6 8 C-6.66 7.34 -7.32 6.68 -8 6 C-5.36 4.02 -2.72 2.04 0 0 Z " fill="#CF2B8A" transform="translate(359,229)"/>
<path d="M0 0 C0.33 0 0.66 0 1 0 C1.33 1.98 1.66 3.96 2 6 C-0.475 7.485 -0.475 7.485 -3 9 C-2.01 6.03 -1.02 3.06 0 0 Z " fill="#370935" transform="translate(374,357)"/>
<path d="M0 0 C0.66 0.33 1.32 0.66 2 1 C1.67 1.99 1.34 2.98 1 4 C1.99 4.33 2.98 4.66 4 5 C2.1875 5.6875 2.1875 5.6875 0 6 C-1.75 4.5625 -1.75 4.5625 -3 3 C-2.01 2.67 -1.02 2.34 0 2 C0 1.34 0 0.68 0 0 Z " fill="#300C35" transform="translate(587,561)"/>
<path d="M0 0 C0.66 0 1.32 0 2 0 C3.2890625 1.53125 3.2890625 1.53125 4.625 3.5 C5.07101562 4.1496875 5.51703125 4.799375 5.9765625 5.46875 C6.31429688 5.9740625 6.65203125 6.479375 7 7 C6.01 7 5.02 7 4 7 C0 2.65714286 0 2.65714286 0 0 Z " fill="#2D2038" transform="translate(472,490)"/>
<path d="M0 0 C0.66 0.33 1.32 0.66 2 1 C1.01 3.97 0.02 6.94 -1 10 C-1.33 10 -1.66 10 -2 10 C-2 7.69 -2 5.38 -2 3 C-1.34 3 -0.68 3 0 3 C0 2.01 0 1.02 0 0 Z " fill="#330631" transform="translate(663,475)"/>
<path d="M0 0 C0.33 1.32 0.66 2.64 1 4 C-0.9375 6.25 -0.9375 6.25 -3 8 C-3.66 7.67 -4.32 7.34 -5 7 C-3.35 4.69 -1.7 2.38 0 0 Z " fill="#D32D8C" transform="translate(310,280)"/>
</svg>
